<?xml version="1.0" encoding="UTF-8"?>
<svg width="801px" height="146px" viewBox="0 0 801 146" version="1.1" xmlns="http://www.w3.org/2000/svg" xmlns:xlink="http://www.w3.org/1999/xlink">
    <title>UA_Logo</title>
    <g id="Page-1" stroke="none" stroke-width="1" fill="none" fill-rule="evenodd">
        <g id="UA_Logo" transform="translate(617.4212, 72.4263) scale(-1, 1) rotate(-180) translate(-617.4212, -72.4263)translate(-76.5771, -72.6711)" fill="#0033A0" fill-rule="nonzero">
            <path d="M871.349849,84.4744733 C868.000268,84.4744733 865.352674,81.8170797 865.352674,78.4888789 C865.352674,75.1588965 868.000268,72.506848 871.349849,72.506848 C874.690522,72.506848 877.344425,75.1588965 877.344425,78.4888789 C877.352238,80.0803898 876.72295,81.608881 875.596815,82.7335096 C874.47068,83.8581381 872.941348,84.4853799 871.349849,84.4754823 M871.349849,73.4226377 C868.606044,73.4226377 866.262228,75.6640062 866.262228,78.4888789 C866.262228,81.317315 868.606044,83.5471026 871.349849,83.5471026 C874.086528,83.5471026 876.421436,81.317315 876.421436,78.4888789 C876.421436,75.6648971 874.086528,73.4226377 871.349849,73.4226377" id="Shape"></path>
            <path d="M874.282514,80.0754757 C874.282514,81.4847941 873.141341,81.8054987 871.95117,81.8054987 L869.108481,81.8054987 L869.108481,75.2586713 L870.026052,75.2586713 L870.026052,78.2822027 L871.137828,78.2822027 L873.088781,75.2586713 L874.19343,75.2586713 L872.221988,78.2822027 C873.385433,78.3160548 874.282514,78.7810764 874.282514,80.0745849 M871.137828,79.1926473 L870.026052,79.1926473 L870.026052,80.8799097 L871.770329,80.8799097 C872.483006,80.8799097 873.364943,80.7614271 873.364943,80.0915109 C873.364943,79.0483302 871.932463,79.1917565 871.137828,79.1917565 M832.941024,72.425781 C834.14637,75.703323 835.178212,79.0420894 836.032259,82.4282 C837.73467,89.5011503 838.592897,96.7509267 838.589001,104.025871 C838.589001,108.281442 838.294117,112.49158 837.726648,116.634905 C837.307951,110.597642 836.255862,105.306907 836.255862,105.306907 C836.503517,104.5096 836.941813,103.200057 837.145817,102.392059 L837.144926,102.388496 C836.506248,96.2640456 835.342987,90.205728 833.667954,84.2802689 C832.875101,87.2049164 831.81054,90.0199898 831.741945,90.2017223 L831.738381,90.2115217 C829.602133,84.5190156 826.409341,77.8162902 823.509637,72.425781 L832.941024,72.425781 Z" id="Shape"></path>
            <path d="M813.167805,72.425781 L818.619783,72.425781 C834.140102,95.3517032 834.920483,115.670119 834.920483,119.563116 C834.920483,126.91705 833.68488,133.674117 831.619899,139.024538 C831.619899,139.024538 828.3986,147.339695 823.384027,154.739062 C823.931898,153.085652 824.983096,149.733398 825.564819,146.739265 C825.603125,146.539715 825.634304,146.363328 825.661921,146.200303 C826.649869,144.553129 831.105881,136.696758 831.701857,128.057333 L831.703638,128.031498 C831.703638,128.031498 828.555389,132.441186 826.220481,135.227752 C826.136742,130.479543 825.520276,125.72688 824.526092,121.137241 C824.526092,121.137241 829.190562,115.735151 831.277814,112.251052 C831.277814,112.251052 829.858696,104.652136 826.815566,97.3703602 C823.719876,101.872696 819.765411,106.245859 819.765411,106.245859 C817.451884,100.526628 814.521891,94.7717624 811.268522,89.4498483 C811.268522,89.4498483 817.179285,82.5333199 818.476357,80.5609868 C816.740098,77.6390119 815.04749,75.0947556 813.167805,72.425781" id="Path"></path>
            <path d="M793.741126,72.425781 C804.041088,83.9453108 812.817703,97.4959695 818.08973,112.006069 C822.664224,124.593724 825.154138,139.967053 821.104353,153.64154 C820.82945,154.562312 820.518604,155.471968 820.172528,156.368419 C818.878128,159.712655 817.198884,162.629285 815.370868,164.920541 C810.440629,170.434931 804.861758,175.333006 798.755699,179.508144 C799.641094,178.374438 800.452838,177.185091 801.185926,175.947433 C801.185926,175.947433 808.628054,170.42686 812.948657,164.818094 C807.405813,168.766323 804.268254,170.364501 803.861137,170.566723 C803.845993,170.57385 803.829067,170.580977 803.814813,170.588994 C805.919882,165.399816 806.553274,161.102375 806.554165,161.095248 C806.554165,161.095248 813.13039,157.663709 819.050952,152.536891 C819.870531,148.746341 820.209052,144.862252 820.15382,140.973709 C814.186933,146.223465 807.281095,150.323138 807.281095,150.323138 C807.154595,145.877817 806.539911,141.375481 805.561762,136.998754 C805.561762,136.998754 812.082755,132.869683 818.43805,127.080966 C818.43805,127.080966 816.613598,118.878056 813.669352,112.42744 C807.572402,118.10302 801.627786,122.520725 801.159201,122.865482 C801.159201,122.865482 798.132106,114.972587 793.229781,107.051184 C799.333858,101.741742 805.070906,96.2363132 805.070906,96.2363132 C801.566318,90.7683004 797.600271,85.5621963 793.322429,80.6946137 L793.320647,80.6901595 L782.401547,91.5629351 C777.961767,86.0766898 773.127042,80.9221906 767.93599,76.1406089 C768.180972,75.8644466 770.382253,73.4244194 771.282898,72.425781 L793.741126,72.425781 Z" id="Path"></path>
            <path d="M796.542837,178.293921 C795.836396,179.259598 795.037307,180.244874 794.119736,181.120576 C793.317084,181.887594 792.533139,182.579782 791.708216,183.201592 C782.621586,190.052198 765.902188,193.47661 765.902188,193.47661 C766.902518,192.941111 767.880311,192.364539 768.833072,191.748369 C768.913248,191.727879 775.655171,190.037944 781.634529,187.113297 C781.634529,187.113297 776.195023,188.3489 772.70647,188.829957 C774.169326,187.537444 775.512529,186.115527 776.719732,184.581513 C776.719732,184.581513 787.814328,182.55751 792.685474,179.886754 C792.685474,179.886754 795.016818,177.487706 796.923228,173.279349 C789.318967,176.366131 780.708049,177.975889 780.708049,177.975889 C781.851005,175.414707 782.669692,172.671792 783.171238,169.817522 C783.171238,169.817522 792.638259,167.501322 799.752555,164.084927 C800.367239,160.706839 800.592623,157.214723 800.46256,153.681628 C792.0601,157.895329 783.72,160.541142 783.72,160.541142 C783.550739,156.898473 782.966344,153.123958 781.98285,149.268376 C781.98285,149.268376 793.454274,144.146012 798.6096,141.035178 C797.471099,136.481173 795.872921,132.020707 793.952257,127.725938 C786.101231,132.826922 777.790528,137.36311 777.790528,137.36311 C775.703276,132.35032 770.56844,124.140283 770.56844,124.140283 L770.573785,124.13672 C770.702958,124.047635 779.248843,118.181414 785.804579,112.97531 C782.547646,108.040023 778.875579,103.300722 774.879244,98.7939322 C773.500214,100.112384 760.90187,111.296065 760.90187,111.296065 C757.099739,106.887268 752.865548,102.5925 748.230476,98.4812452 C748.230476,98.4812452 748.230476,98.4794635 748.233149,98.4785727 L760.377161,84.7337095 C760.378943,84.7337095 760.379834,84.7337095 760.380725,84.7319278 L760.379834,84.7301461 C752.502083,78.2447871 744.649275,73.3290988 744.649275,73.3290988 L734.515011,87.716262 C734.515011,87.716262 727.384679,82.2901189 715.34935,76.5949403 L715.34935,72.425781 L754.871733,72.425781 C798.986428,105.803109 814.641265,153.530184 796.542837,178.293921" id="Path"></path>
            <path d="M774.166567,183.302258 C763.209161,198.049323 746.059484,195.942472 740.945137,195.227122 C735.327462,194.439614 731.080799,193.210247 731.080799,193.210247 C732.336001,193.092655 734.044644,192.868162 735.277575,192.623179 C736.187129,192.836983 744.072007,194.63471 749.802819,193.883727 L749.819745,193.882836 C745.607825,193.425832 739.861869,191.688682 739.262329,191.505168 C739.256093,191.503386 739.254312,191.499823 739.248076,191.49715 L739.265893,191.490023 C739.472569,191.429446 741.128652,190.927009 743.253319,189.680715 C743.874239,189.847303 751.676268,191.916739 759.116614,192.062837 L759.116614,192.061056 C759.116614,192.061056 761.865765,190.841487 764.515141,189.023271 C754.901131,189.059795 746.942313,187.213962 746.726728,187.163184 C747.9511,186.08143 749.042613,184.858039 749.978316,183.518733 C760.517024,185.097312 769.61078,184.413143 769.61078,184.413143 C769.61078,184.413143 770.847275,182.90494 771.403163,182.09427 C772.105149,181.073361 772.823171,179.804796 773.37995,178.690348 C762.623875,179.948222 752.335494,179.048468 752.328368,179.048468 C753.038372,177.216888 753.518538,175.257918 753.781338,173.198282 C754.970617,173.207191 764.080408,173.190265 775.683678,171.101231 C776.05427,168.441164 776.091685,165.591348 775.799488,162.583852 C773.827155,163.096979 764.300447,165.476429 753.906056,166.508029 C753.696707,163.910322 753.202288,161.205713 752.442396,158.432509 C753.605841,158.158129 766.448277,155.097182 773.641859,152.183225 C773.501365,151.727895 773.355851,151.27413 773.205344,150.822012 C772.175526,147.733449 770.888254,144.632414 769.364907,141.541178 C763.572626,144.392776 749.368977,149.945419 749.368977,149.945419 C747.948969,146.768663 746.21271,143.552708 744.183363,140.34299 C744.183363,140.34299 756.361228,133.393501 762.226558,129.545937 C759.433273,125.569169 756.380224,121.781353 753.087368,118.207249 C748.83447,122.022742 738.195096,130.266631 737.391553,130.888442 C733.960014,126.803022 729.63852,122.506471 728.34412,121.236125 L741.111725,106.595962 C740.994134,106.489951 740.871197,106.382159 740.746479,106.273475 C737.983074,103.98311 735.006758,101.827263 732.491009,100.099022 C730.307545,98.615763 728.505364,97.4665716 727.882662,97.0656909 C727.734782,97.2910749 719.375083,110.638621 718.11899,112.762398 C717.206718,112.090012 716.283378,111.432775 715.34935,110.790955 L715.34935,83.3520073 C716.851316,84.0762652 718.356846,84.8263575 719.857921,85.6236647 C727.055957,89.168341 734.041972,93.6662225 740.543366,98.8625273 C745.081115,102.463683 749.374368,106.362609 753.39471,110.533501 C758.520638,115.791274 762.972196,121.299375 766.687915,126.880525 C780.770408,147.665745 784.54225,169.337356 774.166567,183.302258" id="Path"></path>
            <path d="M745.743234,184.414033 C740.524658,190.4023 731.840691,192.453028 721.750078,191.010748 C721.475698,190.969769 721.189736,190.930572 720.932282,190.887811 C720.150555,190.753786 719.372306,190.600215 718.598265,190.427244 C717.039284,190.065561 715.972051,189.709222 715.348459,189.467803 L715.348459,186.447835 C716.33717,187.229639 717.355565,187.973153 718.401388,188.676732 C720.412027,189.10701 722.365653,189.3805 724.248901,189.504328 C721.335835,187.841118 717.972,185.584605 715.34935,183.501807 L715.34935,181.176699 L715.439325,181.123248 C715.439325,181.123248 722.835129,186.977888 728.711149,189.500764 C730.079693,189.406083 731.438956,189.206542 732.77697,188.903897 C723.996792,185.17927 717.514105,180.559343 717.065119,180.235075 C717.704116,179.846788 718.315776,179.415203 718.895808,178.943348 C719.008945,179.014616 727.52187,184.339202 736.890897,187.530213 C738.161243,186.949381 739.38972,186.226014 740.451609,185.407327 C730.251422,182.540584 720.444989,177.421783 720.444989,177.421783 C720.998682,176.777095 721.488006,176.079808 721.905976,175.339876 L722.079691,175.409362 C732.520407,179.877846 743.615003,182.169101 743.615003,182.169101 C744.503507,180.946658 745.219908,179.607977 745.744125,178.190583 C745.744125,178.190583 735.787139,177.052082 722.978555,172.9435 C723.544242,171.17428 723.70014,169.843356 723.70014,169.831775 C723.70014,169.831775 735.774667,172.53282 746.910242,172.832144 C747.065249,171.043326 747.010017,169.035359 746.753453,166.975723 C740.15852,167.323153 724.450232,166.486648 723.832876,166.438543 C723.832876,166.438543 723.775862,164.175794 723.187904,162.046672 C723.187904,162.046672 734.665564,161.677861 745.106279,159.730472 C744.281317,157.19643 743.258137,154.731266 742.046223,152.35783 C735.088716,154.447755 724.528627,156.985776 721.750078,157.623621 C720.994584,155.774269 720.077937,153.99493 719.010727,152.306161 C719.010727,152.306161 731.91285,146.676015 736.864172,143.921519 L736.874862,143.921519 L736.872189,143.916174 C734.723469,140.698438 730.463443,136.19432 730.463443,136.19432 C729.298913,137.065368 728.130109,137.930687 726.957073,138.790246 C723.536224,141.183949 718.459293,144.738425 715.374293,146.886254 L715.348459,146.904071 L715.348459,136.234408 L722.039603,128.418126 C719.894271,126.688288 717.661226,125.070148 715.34935,123.570142 L715.34935,117.204156 L715.594332,117.364508 C718.734876,119.504508 721.746142,121.828326 724.612366,124.323797 C747.699532,144.412375 757.159426,171.315924 745.743234,184.413143" id="Path"></path>
            <path d="M715.34935,153.836635 C721.24675,162.233749 722.100181,171.870922 716.921693,176.575479 C716.4344,177.017339 715.906128,177.395949 715.34935,177.722889 L715.34935,153.836635 Z M747.54987,198.980257 C799.871038,198.980257 842.438333,156.252609 842.438333,103.733673 C842.438333,93.0818275 840.637042,82.4834325 837.152053,72.425781 L860.443222,72.425781 L860.443222,217.523216 L715.346677,217.523216 L715.346677,193.322494 L715.459815,193.363473 C725.748209,197.088722 736.607819,198.989802 747.54987,198.981147 M654.635521,171.260692 C651.093517,174.414287 646.571583,176.861441 641.067936,178.599482 C635.562508,180.336631 628.949758,181.206097 621.223451,181.206097 L582.111747,181.206097 L582.111747,108.780316 L621.223451,108.780316 C635.127775,108.780316 645.897213,111.789594 653.524636,117.809931 C661.154732,123.827596 664.969335,132.888391 664.969335,144.992316 C664.969335,150.399751 664.13194,155.342165 662.457149,159.815993 C660.782359,164.291604 658.175743,168.105315 654.635521,171.260692 M641.550775,135.915486 C640.744559,133.468332 639.442142,131.505798 637.63907,130.026103 C635.835998,128.541953 633.50109,127.480956 630.63702,126.838656 C627.77295,126.193683 624.312014,125.872978 620.257773,125.872978 L603.165111,125.872978 L603.165111,164.114325 L620.256883,164.114325 C624.440296,164.114325 627.964482,163.757987 630.831225,163.052437 C633.693513,162.341542 636.012385,161.217294 637.782496,159.671676 C639.552607,158.126949 640.825626,156.147489 641.598881,153.733297 C642.371244,151.317322 642.75609,148.405147 642.75609,144.992316 C642.75609,141.387953 642.352536,138.36264 641.549884,135.914595 M498.966416,138.522992 L538.559176,138.522992 L538.559176,152.718623 L498.966416,152.718623 L498.966416,164.691594 L545.994177,164.691594 L545.609332,181.207879 L477.912161,181.207879 L477.912161,108.780316 L547.539795,108.780316 L547.926422,125.100615 L498.965525,125.100615 L498.966416,138.522992 Z M371.013312,181.206988 L370.436044,164.114325 L398.150263,164.114325 L398.150263,108.781207 L419.298948,108.781207 L419.298948,164.115216 L447.013167,164.115216 L446.532111,181.206988 L371.013312,181.206988 Z M316.936287,108.780316 L338.374496,108.780316 L338.374496,181.206988 L316.936287,181.206988 L316.936287,108.780316 Z M257.449153,145.187411 L257.643358,137.461103 L257.449153,137.268681 L251.943725,142.86943 L212.739373,181.206988 L195.356295,181.206988 L195.356295,108.780316 L214.476523,108.780316 L214.476523,146.826568 L214.284991,154.649977 L214.572734,154.746189 L220.078163,149.242542 L262.760377,108.780316 L276.571163,108.780316 L276.571163,181.206097 L257.449153,181.206097 L257.449153,145.187411 Z M137.125254,140.357244 C137.125254,134.885668 135.579637,130.81272 132.490183,128.141072 C129.400729,125.468534 124.441389,124.134047 117.618399,124.134047 C110.729487,124.134047 105.675718,125.468534 102.457091,128.141072 C99.2366826,130.81361 97.6278147,134.885668 97.6278147,140.357244 L97.6278147,181.206097 L76.5771234,181.206097 L76.5771234,140.549667 C76.5771234,129.34906 80.1013102,120.995597 87.1514656,115.490168 C94.2007301,109.986521 104.355484,107.234698 117.618399,107.234698 C130.943674,107.234698 141.020033,109.970486 147.844805,115.442062 C154.667794,120.91453 158.081516,129.28581 158.081516,140.549667 L158.081516,181.206097 L137.125254,181.206097 L137.125254,140.357244 Z" id="Shape"></path>
        </g>
    </g>
</svg>